<?xml version="1.0" encoding="utf-8"?>
<!-- Generator: Adobe Illustrator 18.1.1, SVG Export Plug-In . SVG Version: 6.00 Build 0)  -->
<!DOCTYPE svg PUBLIC "-//W3C//DTD SVG 1.1//EN" "http://www.w3.org/Graphics/SVG/1.1/DTD/svg11.dtd">
<svg version="1.1" id="Layer_1" xmlns="http://www.w3.org/2000/svg" xmlns:xlink="http://www.w3.org/1999/xlink" x="0px" y="0px"
	 viewBox="0 141.5 282 282" enable-background="new 0 141.5 282 282" xml:space="preserve">
<rect y="72" fill="#D54E21" width="360" height="360"/>
<path fill="#B4E6D3" d="M53.9,296.4c23.2-8.4,57.9-3.4,45.8,29.4C71.4,347.7,58.2,322.9,53.9,296.4L53.9,296.4z"/>
<path fill="#B4E6D3" d="M68,177.9c-29.5,25.5-49.3,77.2,5.3,85.9C125.4,241.6,101.3,204.5,68,177.9L68,177.9z"/>
<path fill="#FFFFFF" d="M93.1,380.5c0,1.7,6.9,3.1,17.3,4c1.3-2.8,2.5-5.5,3.6-8.1C101.6,377.1,93.1,378.6,93.1,380.5z"/>
<path fill="#FFFFFF" d="M167.1,380.5c0-1.4-5-2.7-12.7-3.5c-0.1,2.3-0.2,4.7-0.4,7.1C162,383.3,167.1,382,167.1,380.5z"/>
<path fill="#594A42" d="M66.7,207.1c-21.1,100.3,89.1,68.5,47.2,169.2c-1.1,2.7-2.3,5.3-3.6,8.1c5.7,0.4,12.5,0.7,19.7,0.7
	c9.1,0,17.4-0.4,23.9-1.1c0.1-2.4,0.3-4.8,0.4-7.1C159.6,243.3,80.8,309.3,66.7,207.1z"/>
<path fill="#594A42" d="M136.3,310.1c10.5-20.5,50-15,58.7-38.2c0.2,28.4-37.8,30.2-46,55.1C144.7,321.3,140.5,315.7,136.3,310.1
	L136.3,310.1z"/>
<path fill="#594A42" d="M131.8,338.6c-7.2-14-34.1-10.3-40.1-26.1c-0.1,19.4,25.8,20.7,31.5,37.7C126,346.3,128.9,342.4,131.8,338.6
	L131.8,338.6z"/>
<g>
	<path fill="#FFFFFF" stroke="#F5F5F5" stroke-miterlimit="10" d="M246.9,280.9c0,1.2-0.9,2.2-2.2,2.2H167c-1.2,0-2.2-0.9-2.2-2.2
		v-39.4c0-1.2,0.9-2.2,2.2-2.2h77.7c1.2,0,2.2,0.9,2.2,2.2L246.9,280.9L246.9,280.9z"/>
</g>
<g opacity="0.2" enable-background="new    ">
	<path fill="#A8A8A8" d="M166.3,263.8c-13.2,0-24-10.8-24-24c0-13.2,10.8-24,24-24c13.2,0,24,10.8,24,24
		C190.3,253.2,179.5,263.8,166.3,263.8z"/>
</g>
<g>
	<circle fill="#2CBA9D" cx="166.3" cy="239.8" r="19.5"/>
</g>
<g>
	<path fill="#FFFFFF" d="M179.2,241.2h-26c-0.5,0-1-0.4-1-1s0.4-1,1-1h26c0.5,0,1,0.4,1,1S179.8,241.2,179.2,241.2z"/>
</g>
<g>
	<path fill="#FFFFFF" d="M166.2,254.1c-0.5,0-1-0.4-1-1v-26c0-0.5,0.4-1,1-1s1,0.4,1,1v26C167.2,253.7,166.8,254.1,166.2,254.1z"/>
</g>
</svg>
